HIERARCHY
ROOT Hips
{
	OFFSET 0.000000 0.000000 0.000000
	CHANNELS 6 Xposition Yposition Zposition Zrotation Yrotation Xrotation 
	JOINT LowerBack
	{
		OFFSET 0.000000 0.000000 0.000000
		CHANNELS 3 Zrotation Yrotation Xrotation
		JOINT Spine
		{
			OFFSET 0.028270 2.035590 -0.193380
			CHANNELS 3 Zrotation Yrotation Xrotation
			JOINT Spine1
			{
				OFFSET 0.056720 2.048850 -0.042750
				CHANNELS 3 Zrotation Yrotation Xrotation
				JOINT Neck
				{
					OFFSET 0.000000 0.000000 0.000000
					CHANNELS 3 Zrotation Yrotation Xrotation
					JOINT Neck1
					{
						OFFSET -0.054170 1.746240 0.172020
						CHANNELS 3 Zrotation Yrotation Xrotation
						JOINT Head
						{
							OFFSET 0.104070 1.761360 -0.123970
							CHANNELS 3 Zrotation Yrotation Xrotation
							End Site
							{
								OFFSET 0.000000 0.000000 0.000000
							}
						}
					}
				}
				JOINT LeftShoulder
				{
					OFFSET 0.000000 0.000000 0.000000
					CHANNELS 3 Zrotation Yrotation Xrotation
					JOINT LeftArm
					{
						OFFSET 3.362410 1.200890 -0.311210
						CHANNELS 3 Zrotation Yrotation Xrotation
						JOINT LeftForeArm
						{
							OFFSET 4.983000 -0.000000 -0.000000
							CHANNELS 3 Zrotation Yrotation Xrotation
							JOINT LeftHand
							{
								OFFSET 3.483560 -0.000000 -0.000000
								CHANNELS 3 Zrotation Yrotation Xrotation
								JOINT LeftFingerBase
								{
									OFFSET 0.000000 0.000000 0.000000
									CHANNELS 3 Zrotation Yrotation Xrotation
									JOINT LeftHandIndex1
									{
										OFFSET 0.715260 -0.000000 -0.000000
										CHANNELS 3 Zrotation Yrotation Xrotation
										End Site
										{
											OFFSET 0.000000 0.000000 0.000000
										}
									}
								}
								JOINT LThumb
								{
									OFFSET 0.000000 0.000000 0.000000
									CHANNELS 3 Zrotation Yrotation Xrotation
									End Site
									{
										OFFSET 0.000000 0.000000 0.000000
									}
								}
							}
						}
					}
				}
				JOINT RightShoulder
				{
					OFFSET 0.000000 0.000000 0.000000
					CHANNELS 3 Zrotation Yrotation Xrotation
					JOINT RightArm
					{
						OFFSET -3.136600 1.374050 -0.404650
						CHANNELS 3 Zrotation Yrotation Xrotation
						JOINT RightForeArm
						{
							OFFSET -5.241900 -0.000000 -0.000000
							CHANNELS 3 Zrotation Yrotation Xrotation
							JOINT RightHand
							{
								OFFSET -3.444170 -0.000000 -0.000000
								CHANNELS 3 Zrotation Yrotation Xrotation
								JOINT RightFingerBase
								{
									OFFSET 0.000000 0.000000 0.000000
									CHANNELS 3 Zrotation Yrotation Xrotation
									JOINT RightHandIndex1
									{
										OFFSET -0.622530 -0.000000 -0.000000
										CHANNELS 3 Zrotation Yrotation Xrotation
										End Site
										{
											OFFSET 0.000000 0.000000 0.000000
										}
									}
								}
								JOINT RThumb
								{
									OFFSET 0.000000 0.000000 0.000000
									CHANNELS 3 Zrotation Yrotation Xrotation
									End Site
									{
										OFFSET 0.000000 0.000000 0.000000
									}
								}
							}
						}
					}
				}
			}
		}
	}
}
}
MOTION
Frames: 18
Frame Time: 0.008333
10.367294 16.110501 2.432732 -173.786605 -85.463584 -173.956693 11.072947 -6.540391 -5.146296 2.712990 -7.326293 -3.986896 -2.638308 -7.501148 0.898016 8.088878 -20.230083 -9.701202 -0.714501 -0.020964 -0.489312 0.000000 0.000000 0.000000 10.984721 1.023603 -1.959941 -29.794134 -33.994840 -12.413071 -0.879443 -81.333425 -0.119344 9.445765 -1.903132 -0.216384 0.027782 0.721066 -0.000000 0.000000 0.000000 0.000000 0.000000 0.000000 0.000000 4.036301 -20.194524 3.051047 44.121238 -24.290229 -44.756748 2.614133 27.455524 -0.007561 -5.190902 1.667717 -0.084603 0.172077 -0.145538 -0.000000 0.000000 0.000000 0.000000 0.000000 0.000000 0.000000 
10.173086 16.048890 2.413432 -166.443148 -85.819973 178.537720 11.715385 -6.560533 -4.984876 2.812531 -7.391872 -3.968254 -2.829907 -7.569013 0.841519 8.359713 -20.105934 -9.827884 -0.849715 -0.030383 -0.526530 0.000000 0.000000 0.000000 10.684774 0.928414 -1.857075 -30.809749 -33.478925 -11.711106 -0.942741 -82.051627 -0.119536 9.572006 -1.754478 -0.206611 0.017264 0.717162 -0.000000 0.000000 0.000000 0.000000 0.000000 0.000000 0.000000 4.725512 -20.115855 3.061121 44.572753 -23.479743 -44.370916 2.645423 27.376634 -0.007670 -5.074414 1.376587 -0.069113 0.167784 -0.138816 -0.000000 0.000000 0.000000 0.000000 0.000000 0.000000 0.000000 
9.986803 15.984279 2.393923 -158.787413 -86.207824 170.649721 12.243003 -6.609678 -4.739683 2.882723 -7.474356 -3.933432 -3.052272 -7.656750 0.766265 8.694134 -19.933467 -9.954002 -1.003188 -0.041288 -0.564784 0.000000 0.000000 0.000000 10.325799 0.762300 -1.734878 -31.697608 -32.993553 -11.016945 -0.993938 -82.714131 -0.119884 9.710915 -1.617728 -0.197736 0.005630 0.713255 -0.000000 0.000000 0.000000 0.000000 0.000000 0.000000 0.000000 5.530063 -20.001571 3.074310 45.075370 -22.630952 -43.966049 2.675835 27.282428 -0.007508 -4.959885 1.172061 -0.058022 0.162829 -0.131805 -0.000000 0.000000 0.000000 0.000000 0.000000 0.000000 0.000000 
9.808326 15.917688 2.374225 -150.773605 -86.589350 162.338838 12.651344 -6.672407 -4.413657 2.920468 -7.557645 -3.883612 -3.306724 -7.748135 0.671239 9.080702 -19.705972 -10.066258 -1.176715 -0.054043 -0.600446 0.000000 0.000000 0.000000 9.897553 0.509687 -1.594037 -32.462667 -32.515473 -10.325191 -1.033168 -83.328911 -0.120325 9.852977 -1.514053 -0.191461 -0.006816 0.709472 -0.000000 0.000000 0.000000 0.000000 0.000000 0.000000 0.000000 6.439945 -19.841739 3.090809 45.627214 -21.737367 -43.567975 2.701762 27.135135 -0.007110 -4.893932 1.087497 -0.053230 0.157192 -0.124651 -0.000000 0.000000 0.000000 0.000000 0.000000 0.000000 0.000000 
9.637334 15.850224 2.354082 -142.657680 -86.917961 153.872486 12.943697 -6.729638 -4.011813 2.923280 -7.622934 -3.820379 -3.594499 -7.823273 0.555760 9.509287 -19.415630 -10.150387 -1.371825 -0.068980 -0.629470 0.000000 0.000000 0.000000 9.399176 0.160544 -1.436915 -33.122594 -32.016609 -9.627128 -1.059980 -83.900624 -0.120663 9.988996 -1.461659 -0.189289 -0.019751 0.705808 -0.000000 0.000000 0.000000 0.000000 0.000000 0.000000 0.000000 7.447436 -19.624344 3.110192 46.221833 -20.792439 -43.190400 2.720449 26.889877 -0.006530 -4.926080 1.150637 -0.055939 0.150848 -0.117411 -0.000000 0.000000 0.000000 0.000000 0.000000 0.000000 0.000000 
9.473170 15.783111 2.333585 -134.543522 -87.168723 145.369341 13.152217 -6.768909 -3.548787 2.896704 -7.660603 -3.748023 -3.913014 -7.871430 0.419790 9.961465 -19.056192 -10.192354 -1.587833 -0.086231 -0.647767 0.000000 0.000000 0.000000 8.828401 -0.293328 -1.265822 -33.710539 -31.467294 -8.915174 -1.075309 -84.427938 -0.120868 10.112220 -1.478005 -0.192822 -0.032811 0.702308 -0.000000 0.000000 0.000000 0.000000 0.000000 0.000000 0.000000 8.528525 -19.342536 3.132849 46.855160 -19.782132 -42.855602 2.728620 26.496085 -0.005843 -5.096378 1.372912 -0.067650 0.143646 -0.110159 -0.000000 0.000000 0.000000 0.000000 0.000000 0.000000 0.000000 
9.315067 15.717599 2.312380 -126.797784 -87.329708 137.214419 13.299691 -6.782781 -3.045373 2.845028 -7.666182 -3.671332 -4.258934 -7.886621 0.264724 10.425023 -18.621102 -10.180256 -1.823746 -0.105827 -0.651590 0.000000 0.000000 0.000000 8.192662 -0.850534 -1.083797 -34.267115 -30.843974 -8.177312 -1.079280 -84.898872 -0.120821 10.220580 -1.572641 -0.203159 -0.045753 0.698825 -0.000000 0.000000 0.000000 0.000000 0.000000 0.000000 0.000000 9.669482 -18.991796 3.157367 47.515067 -18.696636 -42.563343 2.724533 25.906814 -0.005139 -5.439189 1.750668 -0.089965 0.135428 -0.102846 -0.000000 0.000000 0.000000 0.000000 0.000000 0.000000 0.000000 
9.161824 15.654900 2.290702 -119.501366 -87.405530 129.509829 13.417691 -6.771486 -2.528692 2.777440 -7.643697 -3.596526 -4.623637 -7.872345 0.093716 10.880754 -18.109201 -10.105694 -2.075415 -0.127457 -0.638252 0.000000 0.000000 0.000000 7.498258 -1.505688 -0.893503 -34.848117 -30.125510 -7.405985 -1.073714 -85.292635 -0.120478 10.316596 -1.753274 -0.221300 -0.058353 0.695256 -0.000000 0.000000 0.000000 0.000000 0.000000 0.000000 0.000000 10.839014 -18.576234 3.184004 48.193825 -17.513492 -42.320753 2.705826 25.074159 -0.004535 -5.969983 2.260632 -0.125286 0.125924 -0.095545 -0.000000 0.000000 0.000000 0.000000 0.000000 0.000000 0.000000 
9.012618 15.596180 2.268301 -112.863362 -87.411783 122.483075 13.513348 -6.738845 -2.027878 2.698537 -7.599560 -3.528908 -4.998326 -7.834380 -0.088342 11.319253 -17.518045 -9.965073 -2.338973 -0.150716 -0.606273 0.000000 0.000000 0.000000 6.758214 -2.237628 -0.697576 -35.503804 -29.306559 -6.591640 -1.059622 -85.573815 -0.119826 10.408625 -2.016361 -0.247146 -0.070560 0.691250 -0.000000 0.000000 0.000000 0.000000 0.000000 0.000000 0.000000 12.023305 -18.098599 3.210683 48.875869 -16.219575 -42.108414 2.672202 23.968419 -0.004166 -6.690822 2.860528 -0.175212 0.114972 -0.088325 -0.000000 0.000000 0.000000 0.000000 0.000000 0.000000 0.000000 
8.866554 15.542454 2.245194 -106.931524 -87.365450 116.201765 13.591855 -6.690026 -1.570350 2.613558 -7.541128 -3.473143 -5.372176 -7.779992 -0.275496 11.730985 -16.847047 -9.759561 -2.609332 -0.175023 -0.555664 0.000000 0.000000 0.000000 5.985836 -3.016863 -0.498128 -36.286200 -28.387544 -5.730834 -1.039228 -85.698590 -0.118901 10.510060 -2.353244 -0.280491 -0.082395 0.686368 -0.000000 0.000000 0.000000 0.000000 0.000000 0.000000 0.000000 13.205904 -17.561667 3.236074 49.547169 -14.800836 -41.902547 2.624229 22.575374 -0.004180 -7.583029 3.490661 -0.239846 0.102542 -0.081469 -0.000000 0.000000 0.000000 0.000000 0.000000 0.000000 0.000000 
8.722721 15.494568 2.221870 -101.678530 -87.271900 110.658206 13.665468 -6.629072 -1.178565 2.529821 -7.474460 -3.432494 -5.731982 -7.715576 -0.459824 12.105158 -16.105311 -9.497352 -2.879291 -0.199543 -0.488619 0.000000 0.000000 0.000000 5.196479 -3.803554 -0.298712 -37.252628 -27.379442 -4.829061 -1.016194 -85.613072 -0.117789 10.637643 -2.753874 -0.321139 -0.093828 0.680163 -0.000000 0.000000 0.000000 0.000000 0.000000 0.000000 0.000000 14.362774 -16.975282 3.259726 50.196266 -13.228503 -41.678497 2.563553 20.889295 -0.004719 -8.608959 4.084336 -0.316383 0.088869 -0.075556 -0.000000 0.000000 0.000000 0.000000 0.000000 0.000000 0.000000 
8.580703 15.453270 2.198082 -97.167516 -87.150823 105.928628 13.721202 -6.560970 -0.868420 2.447740 -7.404872 -3.408651 -6.069939 -7.646292 -0.637113 12.442779 -15.285307 -9.185962 -3.145768 -0.223812 -0.407081 0.000000 0.000000 0.000000 4.407732 -4.558443 -0.100049 -38.430102 -26.297641 -3.894914 -0.993339 -85.261339 -0.116592 10.811726 -3.195108 -0.367990 -0.105033 0.671883 -0.000000 0.000000 0.000000 0.000000 0.000000 0.000000 0.000000 15.498999 -16.327886 3.279278 50.812556 -11.520266 -41.383609 2.495484 18.956916 -0.005889 -9.714752 4.559145 -0.396623 0.074608 -0.071173 -0.000000 0.000000 0.000000 0.000000 0.000000 0.000000 0.000000 
8.440044 15.418995 2.174463 -93.368961 -86.998263 101.995574 13.774815 -6.487601 -0.648505 2.374264 -7.335480 -3.401438 -6.375170 -7.575680 -0.798911 12.738296 -14.402385 -8.843008 -3.402233 -0.247024 -0.316191 0.000000 0.000000 0.000000 3.634709 -5.229157 0.094174 -39.854060 -25.179463 -2.947278 -0.975608 -84.574903 -0.115368 11.051690 -3.662426 -0.421151 -0.115941 0.661048 -0.000000 0.000000 0.000000 0.000000 0.000000 0.000000 0.000000 16.599501 -15.628909 3.293423 51.391260 -9.657335 -40.969826 2.426662 16.824640 -0.007731 -10.834699 4.842824 -0.468662 0.060765 -0.069076 -0.000000 0.000000 0.000000 0.000000 0.000000 0.000000 0.000000 
8.300784 15.392096 2.150629 -90.342967 -86.831976 98.919150 13.809051 -6.411828 -0.515187 2.307078 -7.268009 -3.409136 -6.644200 -7.505356 -0.945136 12.995112 -13.448904 -8.476940 -3.646489 -0.268877 -0.218467 0.000000 0.000000 0.000000 2.898222 -5.793043 0.283864 -41.522826 -24.035817 -2.015103 -0.965867 -83.503128 -0.114212 11.374799 -4.129906 -0.479429 -0.126517 0.646880 0.000000 0.000000 0.000000 0.000000 0.000000 0.000000 0.000000 17.668928 -14.860855 3.301421 51.946456 -7.672997 -40.394960 2.365523 14.580647 -0.010166 -11.885646 4.876913 -0.517295 0.048608 -0.069728 -0.000000 0.000000 0.000000 0.000000 0.000000 0.000000 0.000000 
8.162975 15.372694 2.127010 -88.091281 -86.646737 96.699825 13.836129 -6.332655 -0.461637 2.249721 -7.201755 -3.428727 -6.873749 -7.434848 -1.070544 13.212892 -12.437027 -8.105131 -3.874961 -0.288921 -0.119168 0.000000 0.000000 0.000000 2.208671 -6.209637 0.467984 -43.430837 -22.917522 -1.126139 -0.968226 -81.981487 -0.113137 11.794077 -4.582208 -0.542934 -0.136550 0.629020 0.000000 0.000000 0.000000 0.000000 0.000000 0.000000 0.000000 18.701328 -14.024718 3.301452 52.492852 -5.579505 -39.598202 2.322516 12.326934 -0.013009 -12.787361 4.617868 -0.527622 0.039497 -0.073198 0.000000 0.000000 0.000000 0.000000 0.000000 0.000000 0.000000 
8.026721 15.360879 2.103428 -86.642951 -86.446838 95.358798 13.853838 -6.248089 -0.473376 2.200778 -7.133894 -3.456681 -7.066757 -7.361398 -1.175544 13.395449 -11.365436 -7.736544 -4.086969 -0.307072 -0.021173 0.000000 0.000000 0.000000 1.576605 -6.463882 0.649032 -45.546925 -21.858520 -0.310598 -0.985180 -79.963413 -0.112069 12.315122 -5.000698 -0.610678 -0.145762 0.607097 -0.000000 0.000000 0.000000 0.000000 0.000000 0.000000 0.000000 19.697930 -13.105887 3.292377 53.061546 -3.428726 -38.508466 2.308341 10.202848 -0.015968 -13.461366 4.040573 -0.487640 0.034549 -0.078923 -0.000000 0.000000 0.000000 0.000000 0.000000 0.000000 0.000000 
7.892718 15.356475 2.079446 -86.037896 -86.240759 94.914014 13.852248 -6.155794 -0.526069 2.157172 -7.059989 -3.487877 -7.225253 -7.280724 -1.261746 13.540125 -10.245152 -7.376401 -4.279226 -0.323109 0.073661 0.000000 0.000000 0.000000 1.009840 -6.569157 0.828880 -47.821638 -20.868392 0.391021 -1.017200 -77.425995 -0.110861 12.934277 -5.367718 -0.680974 -0.153534 0.580855 -0.000000 0.000000 0.000000 0.000000 0.000000 0.000000 0.000000 20.635864 -12.105137 3.275257 53.698184 -1.227006 -37.193647 2.324096 8.258506 -0.018664 -13.821152 3.232108 -0.403351 0.034197 -0.085935 -0.000000 0.000000 0.000000 0.000000 0.000000 0.000000 0.000000 
7.761196 15.359422 2.054809 -86.277580 -86.026313 95.350116 13.833415 -6.050478 -0.600003 2.117376 -6.973653 -3.518609 -7.354816 -7.186841 -1.331198 13.646482 -9.082975 -7.028134 -4.451290 -0.337080 0.164061 0.000000 0.000000 0.000000 0.505958 -6.534101 1.012524 -50.198193 -19.976657 0.953463 -1.064407 -74.349736 -0.109321 13.640892 -5.669772 -0.751431 -0.159337 0.550373 -0.000000 0.000000 0.000000 0.000000 0.000000 0.000000 0.000000 21.502537 -11.017615 3.249072 54.436933 0.984374 -35.657149 2.371023 6.591455 -0.020760 -13.819456 2.269910 -0.287255 0.038207 -0.092883 -0.000000 0.000000 0.000000 0.000000 0.000000 0.000000 0.000000 
